<?xml version="1.0" encoding="UTF-8" standalone="no"?>
<!DOCTYPE svg PUBLIC "-//W3C//DTD SVG 1.1//EN"
 "http://www.w3.org/Graphics/SVG/1.1/DTD/svg11.dtd">
<!-- Generated by graphviz version 2.28.0 (20110509.1545)
 -->
<!-- Title: G Pages: 1 -->
<svg width="430pt" height="1123pt"
 viewBox="0.00 0.00 430.00 1123.00" xmlns="http://www.w3.org/2000/svg" xmlns:xlink="http://www.w3.org/1999/xlink">
<g id="graph1" class="graph" transform="scale(1 1) rotate(0) translate(4 1119)">
<title>G</title>
<polygon fill="white" stroke="white" points="-4,5 -4,-1119 427,-1119 427,5 -4,5"/>
<g id="graph2" class="cluster"><title>cluster_global</title>
<polyline fill="none" stroke="gray" points="262,-8 402,-8 "/>
<path fill="none" stroke="gray" d="M402,-8C408,-8 414,-14 414,-20"/>
<polyline fill="none" stroke="gray" points="414,-20 414,-1095 "/>
<path fill="none" stroke="gray" d="M414,-1095C414,-1101 408,-1107 402,-1107"/>
<polyline fill="none" stroke="gray" points="402,-1107 262,-1107 "/>
<path fill="none" stroke="gray" d="M262,-1107C256,-1107 250,-1101 250,-1095"/>
<polyline fill="none" stroke="gray" points="250,-1095 250,-20 "/>
<path fill="none" stroke="gray" d="M250,-20C250,-14 256,-8 262,-8"/>
<text text-anchor="middle" x="332" y="-1092" font-family="Times,serif" font-size="11.00" fill="gray">global</text>
</g>
<!-- \\Site_Controller -->
<g id="node2" class="node"><title>\\Site_Controller</title>
<a xlink:href="libraries.Site_Controller.html" xlink:title="Site_Controller" target="_parent">
<polygon fill="none" stroke="black" points="389.516,-1078 274.484,-1078 274.484,-1042 389.516,-1042 389.516,-1078"/>
<text text-anchor="middle" x="332" y="-1055.6" font-family="Courier,monospace" font-size="11.00">Site_Controller</text>
</a>
</g>
<!-- \\MY_Controller -->
<g id="node23" class="node"><title>\\MY_Controller</title>
<ellipse fill="none" stroke="black" cx="93" cy="-925" rx="73.6044" ry="18"/>
<text text-anchor="middle" x="93" y="-919.4" font-family="Times,serif" font-size="14.00" fill="gray">\MY_Controller</text>
</g>
<!-- \\Site_Controller&#45;&gt;\\MY_Controller -->
<g id="edge3" class="edge"><title>\\Site_Controller&#45;&gt;\\MY_Controller</title>
<path fill="none" stroke="black" d="M274.39,-1043.43C266.053,-1040.33 257.69,-1036.84 250,-1033 202.602,-1009.3 153.169,-972.737 122.978,-948.837"/>
<polygon fill="none" stroke="black" points="124.987,-945.962 114.99,-942.453 120.616,-951.43 124.987,-945.962"/>
</g>
<!-- \\Social_auth -->
<g id="node3" class="node"><title>\\Social_auth</title>
<a xlink:href="libraries.Social_auth.html" xlink:title="Social_auth" target="_parent">
<polygon fill="none" stroke="black" points="376.113,-1024 287.887,-1024 287.887,-988 376.113,-988 376.113,-1024"/>
<text text-anchor="middle" x="332" y="-1001.6" font-family="Courier,monospace" font-size="11.00">Social_auth</text>
</a>
</g>
<!-- \\Social_igniter -->
<g id="node4" class="node"><title>\\Social_igniter</title>
<a xlink:href="libraries.Social_igniter.html" xlink:title="Social_igniter" target="_parent">
<polygon fill="none" stroke="black" points="386.416,-970 277.584,-970 277.584,-934 386.416,-934 386.416,-970"/>
<text text-anchor="middle" x="332" y="-947.6" font-family="Courier,monospace" font-size="11.00">Social_igniter</text>
</a>
</g>
<!-- \\Webfinger -->
<g id="node5" class="node"><title>\\Webfinger</title>
<a xlink:href="libraries.Webfinger.html" xlink:title="Webfinger" target="_parent">
<polygon fill="none" stroke="black" points="369.911,-916 294.089,-916 294.089,-880 369.911,-880 369.911,-916"/>
<text text-anchor="middle" x="332" y="-893.6" font-family="Courier,monospace" font-size="11.00">Webfinger</text>
</a>
</g>
<!-- \\Unzip -->
<g id="node6" class="node"><title>\\Unzip</title>
<a xlink:href="libraries.Unzip.html" xlink:title="Unzip" target="_parent">
<polygon fill="none" stroke="black" points="359,-862 305,-862 305,-826 359,-826 359,-862"/>
<text text-anchor="middle" x="332" y="-839.6" font-family="Courier,monospace" font-size="11.00">Unzip</text>
</a>
</g>
<!-- \\MY_Form_validation -->
<g id="node7" class="node"><title>\\MY_Form_validation</title>
<a xlink:href="libraries.MY_Form_validation.html" xlink:title="MY_Form_validation" target="_parent">
<polygon fill="none" stroke="black" points="399.319,-754 264.681,-754 264.681,-718 399.319,-718 399.319,-754"/>
<text text-anchor="middle" x="332" y="-731.6" font-family="Courier,monospace" font-size="11.00">MY_Form_validation</text>
</a>
</g>
<!-- \\CI_Form_validation -->
<g id="node25" class="node"><title>\\CI_Form_validation</title>
<ellipse fill="none" stroke="black" cx="93" cy="-736" rx="92.6566" ry="18"/>
<text text-anchor="middle" x="93" y="-730.4" font-family="Times,serif" font-size="14.00" fill="gray">\CI_Form_validation</text>
</g>
<!-- \\MY_Form_validation&#45;&gt;\\CI_Form_validation -->
<g id="edge5" class="edge"><title>\\MY_Form_validation&#45;&gt;\\CI_Form_validation</title>
<path fill="none" stroke="black" d="M264.667,-736C243.434,-736 219.409,-736 196.231,-736"/>
<polygon fill="none" stroke="black" points="196.008,-732.5 186.008,-736 196.008,-739.5 196.008,-732.5"/>
</g>
<!-- \\MY_Cart -->
<g id="node8" class="node"><title>\\MY_Cart</title>
<a xlink:href="libraries.MY_Cart.html" xlink:title="MY_Cart" target="_parent">
<polygon fill="none" stroke="black" points="363.208,-700 300.792,-700 300.792,-664 363.208,-664 363.208,-700"/>
<text text-anchor="middle" x="332" y="-677.6" font-family="Courier,monospace" font-size="11.00">MY_Cart</text>
</a>
</g>
<!-- \\CI_Cart -->
<g id="node27" class="node"><title>\\CI_Cart</title>
<ellipse fill="none" stroke="black" cx="93" cy="-682" rx="44.6628" ry="18"/>
<text text-anchor="middle" x="93" y="-676.4" font-family="Times,serif" font-size="14.00" fill="gray">\CI_Cart</text>
</g>
<!-- \\MY_Cart&#45;&gt;\\CI_Cart -->
<g id="edge7" class="edge"><title>\\MY_Cart&#45;&gt;\\CI_Cart</title>
<path fill="none" stroke="black" d="M300.502,-682C262.065,-682 195.331,-682 148.143,-682"/>
<polygon fill="none" stroke="black" points="148.09,-678.5 138.09,-682 148.09,-685.5 148.09,-678.5"/>
</g>
<!-- \\MY_Calendar -->
<g id="node9" class="node"><title>\\MY_Calendar</title>
<a xlink:href="libraries.MY_Calendar.html" xlink:title="MY_Calendar" target="_parent">
<polygon fill="none" stroke="black" points="376.113,-592 287.887,-592 287.887,-556 376.113,-556 376.113,-592"/>
<text text-anchor="middle" x="332" y="-569.6" font-family="Courier,monospace" font-size="11.00">MY_Calendar</text>
</a>
</g>
<!-- \\CI_Calendar -->
<g id="node29" class="node"><title>\\CI_Calendar</title>
<ellipse fill="none" stroke="black" cx="93" cy="-574" rx="63.121" ry="18"/>
<text text-anchor="middle" x="93" y="-568.4" font-family="Times,serif" font-size="14.00" fill="gray">\CI_Calendar</text>
</g>
<!-- \\MY_Calendar&#45;&gt;\\CI_Calendar -->
<g id="edge9" class="edge"><title>\\MY_Calendar&#45;&gt;\\CI_Calendar</title>
<path fill="none" stroke="black" d="M287.806,-574C253.907,-574 205.97,-574 166.253,-574"/>
<polygon fill="none" stroke="black" points="166.083,-570.5 156.083,-574 166.083,-577.5 166.083,-570.5"/>
</g>
<!-- \\Installer -->
<g id="node10" class="node"><title>\\Installer</title>
<a xlink:href="libraries.Installer.html" xlink:title="Installer" target="_parent">
<polygon fill="none" stroke="black" points="369.911,-646 294.089,-646 294.089,-610 369.911,-610 369.911,-646"/>
<text text-anchor="middle" x="332" y="-623.6" font-family="Courier,monospace" font-size="11.00">Installer</text>
</a>
</g>
<!-- \\Dashboard_Controller -->
<g id="node11" class="node"><title>\\Dashboard_Controller</title>
<a xlink:href="libraries.Dashboard_Controller.html" xlink:title="Dashboard_Controller" target="_parent">
<polygon fill="none" stroke="black" points="406.021,-808 257.979,-808 257.979,-772 406.021,-772 406.021,-808"/>
<text text-anchor="middle" x="332" y="-785.6" font-family="Courier,monospace" font-size="11.00">Dashboard_Controller</text>
</a>
</g>
<!-- \\Dashboard_Controller&#45;&gt;\\MY_Controller -->
<g id="edge11" class="edge"><title>\\Dashboard_Controller&#45;&gt;\\MY_Controller</title>
<path fill="none" stroke="black" d="M270.509,-808.04C263.474,-810.758 256.497,-813.752 250,-817 202.602,-840.699 153.169,-877.263 122.978,-901.163"/>
<polygon fill="none" stroke="black" points="120.616,-898.57 114.99,-907.547 124.987,-904.038 120.616,-898.57"/>
</g>
<!-- \\Activity_model -->
<g id="node12" class="node"><title>\\Activity_model</title>
<a xlink:href="models.activity_model.html" xlink:title="Activity_model" target="_parent">
<polygon fill="none" stroke="black" points="386.416,-538 277.584,-538 277.584,-502 386.416,-502 386.416,-538"/>
<text text-anchor="middle" x="332" y="-515.6" font-family="Courier,monospace" font-size="11.00">Activity_model</text>
</a>
</g>
<!-- \\CI_Model -->
<g id="node32" class="node"><title>\\CI_Model</title>
<ellipse fill="none" stroke="black" cx="93" cy="-277" rx="53.3355" ry="18"/>
<text text-anchor="middle" x="93" y="-271.4" font-family="Times,serif" font-size="14.00" fill="gray">\CI_Model</text>
</g>
<!-- \\Activity_model&#45;&gt;\\CI_Model -->
<g id="edge13" class="edge"><title>\\Activity_model&#45;&gt;\\CI_Model</title>
<path fill="none" stroke="black" d="M277.676,-507.519C267.927,-503.807 258.243,-499.055 250,-493 180.188,-441.72 129.038,-349.886 106.602,-304.266"/>
<polygon fill="none" stroke="black" points="109.631,-302.488 102.131,-295.004 103.327,-305.532 109.631,-302.488"/>
</g>
<!-- \\Auth_model -->
<g id="node13" class="node"><title>\\Auth_model</title>
<a xlink:href="models.auth_model.html" xlink:title="Auth_model" target="_parent">
<polygon fill="none" stroke="black" points="373.011,-484 290.989,-484 290.989,-448 373.011,-448 373.011,-484"/>
<text text-anchor="middle" x="332" y="-461.6" font-family="Courier,monospace" font-size="11.00">Auth_model</text>
</a>
</g>
<!-- \\Auth_model&#45;&gt;\\CI_Model -->
<g id="edge15" class="edge"><title>\\Auth_model&#45;&gt;\\CI_Model</title>
<path fill="none" stroke="black" d="M290.974,-456.828C277.335,-452.645 262.41,-446.832 250,-439 191.405,-402.018 139.083,-338.461 112.494,-302.945"/>
<polygon fill="none" stroke="black" points="115.055,-300.52 106.301,-294.553 109.423,-304.677 115.055,-300.52"/>
</g>
<!-- \\Categories_model -->
<g id="node14" class="node"><title>\\Categories_model</title>
<a xlink:href="models.categories_model.html" xlink:title="Categories_model" target="_parent">
<polygon fill="none" stroke="black" points="392.618,-430 271.382,-430 271.382,-394 392.618,-394 392.618,-430"/>
<text text-anchor="middle" x="332" y="-407.6" font-family="Courier,monospace" font-size="11.00">Categories_model</text>
</a>
</g>
<!-- \\Categories_model&#45;&gt;\\CI_Model -->
<g id="edge17" class="edge"><title>\\Categories_model&#45;&gt;\\CI_Model</title>
<path fill="none" stroke="black" d="M271.371,-394.292C264.044,-391.486 256.762,-388.381 250,-385 202.063,-361.032 152.046,-323.905 121.956,-300.027"/>
<polygon fill="none" stroke="black" points="124.008,-297.187 114.016,-293.666 119.632,-302.65 124.008,-297.187"/>
</g>
<!-- \\Connections_model -->
<g id="node15" class="node"><title>\\Connections_model</title>
<a xlink:href="models.connections_model.html" xlink:title="Connections_model" target="_parent">
<polygon fill="none" stroke="black" points="396.218,-376 267.782,-376 267.782,-340 396.218,-340 396.218,-376"/>
<text text-anchor="middle" x="332" y="-353.6" font-family="Courier,monospace" font-size="11.00">Connections_model</text>
</a>
</g>
<!-- \\Connections_model&#45;&gt;\\CI_Model -->
<g id="edge19" class="edge"><title>\\Connections_model&#45;&gt;\\CI_Model</title>
<path fill="none" stroke="black" d="M276.508,-339.931C267.642,-336.964 258.562,-333.909 250,-331 213.148,-318.48 171.494,-304.047 140.504,-293.254"/>
<polygon fill="none" stroke="black" points="141.432,-289.871 130.837,-289.885 139.128,-296.481 141.432,-289.871"/>
</g>
<!-- \\Content_model -->
<g id="node16" class="node"><title>\\Content_model</title>
<a xlink:href="models.content_model.html" xlink:title="Content_model" target="_parent">
<polygon fill="none" stroke="black" points="382.814,-322 281.186,-322 281.186,-286 382.814,-286 382.814,-322"/>
<text text-anchor="middle" x="332" y="-299.6" font-family="Courier,monospace" font-size="11.00">Content_model</text>
</a>
</g>
<!-- \\Content_model&#45;&gt;\\CI_Model -->
<g id="edge21" class="edge"><title>\\Content_model&#45;&gt;\\CI_Model</title>
<path fill="none" stroke="black" d="M281.028,-298.307C243.923,-294.08 193.161,-288.297 153.883,-283.822"/>
<polygon fill="none" stroke="black" points="154.236,-280.34 143.904,-282.685 153.443,-287.295 154.236,-280.34"/>
</g>
<!-- \\Image_model -->
<g id="node17" class="node"><title>\\Image_model</title>
<a xlink:href="models.image_model.html" xlink:title="Image_model" target="_parent">
<polygon fill="none" stroke="black" points="376.113,-268 287.887,-268 287.887,-232 376.113,-232 376.113,-268"/>
<text text-anchor="middle" x="332" y="-245.6" font-family="Courier,monospace" font-size="11.00">Image_model</text>
</a>
</g>
<!-- \\Image_model&#45;&gt;\\CI_Model -->
<g id="edge23" class="edge"><title>\\Image_model&#45;&gt;\\CI_Model</title>
<path fill="none" stroke="black" d="M287.806,-254.921C250.31,-259.193 195.637,-265.421 153.912,-270.175"/>
<polygon fill="none" stroke="black" points="153.412,-266.709 143.873,-271.318 154.205,-273.664 153.412,-266.709"/>
</g>
<!-- \\Relationships_model -->
<g id="node18" class="node"><title>\\Relationships_model</title>
<a xlink:href="models.relationships_model.html" xlink:title="Relationships_model" target="_parent">
<polygon fill="none" stroke="black" points="402.921,-214 261.079,-214 261.079,-178 402.921,-178 402.921,-214"/>
<text text-anchor="middle" x="332" y="-191.6" font-family="Courier,monospace" font-size="11.00">Relationships_model</text>
</a>
</g>
<!-- \\Relationships_model&#45;&gt;\\CI_Model -->
<g id="edge25" class="edge"><title>\\Relationships_model&#45;&gt;\\CI_Model</title>
<path fill="none" stroke="black" d="M276.508,-214.069C267.642,-217.036 258.562,-220.091 250,-223 213.148,-235.52 171.494,-249.953 140.504,-260.746"/>
<polygon fill="none" stroke="black" points="139.128,-257.519 130.837,-264.115 141.432,-264.129 139.128,-257.519"/>
</g>
<!-- \\Settings_model -->
<g id="node19" class="node"><title>\\Settings_model</title>
<a xlink:href="models.settings_model.html" xlink:title="Settings_model" target="_parent">
<polygon fill="none" stroke="black" points="386.416,-160 277.584,-160 277.584,-124 386.416,-124 386.416,-160"/>
<text text-anchor="middle" x="332" y="-137.6" font-family="Courier,monospace" font-size="11.00">Settings_model</text>
</a>
</g>
<!-- \\Settings_model&#45;&gt;\\CI_Model -->
<g id="edge27" class="edge"><title>\\Settings_model&#45;&gt;\\CI_Model</title>
<path fill="none" stroke="black" d="M277.406,-157.466C268.081,-160.83 258.618,-164.691 250,-169 202.063,-192.968 152.046,-230.095 121.956,-253.973"/>
<polygon fill="none" stroke="black" points="119.632,-251.35 114.016,-260.334 124.008,-256.813 119.632,-251.35"/>
</g>
<!-- \\Sites_model -->
<g id="node20" class="node"><title>\\Sites_model</title>
<a xlink:href="models.sites_model.html" xlink:title="Sites_model" target="_parent">
<polygon fill="none" stroke="black" points="376.113,-106 287.887,-106 287.887,-70 376.113,-70 376.113,-106"/>
<text text-anchor="middle" x="332" y="-83.6" font-family="Courier,monospace" font-size="11.00">Sites_model</text>
</a>
</g>
<!-- \\Sites_model&#45;&gt;\\CI_Model -->
<g id="edge29" class="edge"><title>\\Sites_model&#45;&gt;\\CI_Model</title>
<path fill="none" stroke="black" d="M287.645,-98.218C274.939,-102.308 261.407,-107.8 250,-115 191.405,-151.982 139.083,-215.539 112.494,-251.055"/>
<polygon fill="none" stroke="black" points="109.423,-249.323 106.301,-259.447 115.055,-253.48 109.423,-249.323"/>
</g>
<!-- \\Upload_model -->
<g id="node21" class="node"><title>\\Upload_model</title>
<a xlink:href="models.upload_model.html" xlink:title="Upload_model" target="_parent">
<polygon fill="none" stroke="black" points="379.713,-52 284.287,-52 284.287,-16 379.713,-16 379.713,-52"/>
<text text-anchor="middle" x="332" y="-29.6" font-family="Courier,monospace" font-size="11.00">Upload_model</text>
</a>
</g>
<!-- \\Upload_model&#45;&gt;\\CI_Model -->
<g id="edge31" class="edge"><title>\\Upload_model&#45;&gt;\\CI_Model</title>
<path fill="none" stroke="black" d="M284.03,-44.2043C272.206,-48.188 260.035,-53.6288 250,-61 180.188,-112.28 129.038,-204.114 106.602,-249.734"/>
<polygon fill="none" stroke="black" points="103.327,-248.468 102.131,-258.996 109.631,-251.512 103.327,-248.468"/>
</g>
</g>
</svg>
