<?xml version="1.0" encoding="UTF-8" standalone="no"?>
<!DOCTYPE svg PUBLIC "-//W3C//DTD SVG 1.1//EN"
 "http://www.w3.org/Graphics/SVG/1.1/DTD/svg11.dtd">
<!-- Generated by graphviz version 2.28.0 (20110509.1545)
 -->
<!-- Title: G Pages: 1 -->
<svg width="644pt" height="2439pt"
 viewBox="0.00 0.00 644.00 2439.00" xmlns="http://www.w3.org/2000/svg" xmlns:xlink="http://www.w3.org/1999/xlink">
<g id="graph1" class="graph" transform="scale(1 1) rotate(0) translate(4 2435)">
<title>G</title>
<polygon fill="white" stroke="white" points="-4,5 -4,-2435 641,-2435 641,5 -4,5"/>
<g id="graph2" class="cluster"><title>cluster_global</title>
<polyline fill="none" stroke="gray" points="243,-352 616,-352 "/>
<path fill="none" stroke="gray" d="M616,-352C622,-352 628,-358 628,-364"/>
<polyline fill="none" stroke="gray" points="628,-364 628,-2411 "/>
<path fill="none" stroke="gray" d="M628,-2411C628,-2417 622,-2423 616,-2423"/>
<polyline fill="none" stroke="gray" points="616,-2423 243,-2423 "/>
<path fill="none" stroke="gray" d="M243,-2423C237,-2423 231,-2417 231,-2411"/>
<polyline fill="none" stroke="gray" points="231,-2411 231,-364 "/>
<path fill="none" stroke="gray" d="M231,-364C231,-358 237,-352 243,-352"/>
<text text-anchor="middle" x="429.5" y="-2408" font-family="Times,serif" font-size="11.00" fill="gray">global</text>
</g>
<!-- \\Site_Controller -->
<g id="node2" class="node"><title>\\Site_Controller</title>
<a xlink:href="libraries.Site_Controller.html" xlink:title="Site_Controller" target="_parent">
<polygon fill="none" stroke="black" points="370.516,-2070 255.484,-2070 255.484,-2034 370.516,-2034 370.516,-2070"/>
<text text-anchor="middle" x="313" y="-2047.6" font-family="Courier,monospace" font-size="11.00">Site_Controller</text>
</a>
</g>
<!-- \\MY_Controller -->
<g id="node43" class="node"><title>\\MY_Controller</title>
<ellipse fill="none" stroke="black" cx="74" cy="-1782" rx="73.6044" ry="18"/>
<text text-anchor="middle" x="74" y="-1776.4" font-family="Times,serif" font-size="14.00" fill="gray">\MY_Controller</text>
</g>
<!-- \\Site_Controller&#45;&gt;\\MY_Controller -->
<g id="edge3" class="edge"><title>\\Site_Controller&#45;&gt;\\MY_Controller</title>
<path fill="none" stroke="black" d="M296.082,-2033.87C254.916,-1986.97 144.852,-1861.58 97.3437,-1807.45"/>
<polygon fill="none" stroke="black" points="99.7668,-1804.91 90.5395,-1799.7 94.506,-1809.53 99.7668,-1804.91"/>
</g>
<!-- \\Social_auth -->
<g id="node3" class="node"><title>\\Social_auth</title>
<a xlink:href="libraries.Social_auth.html" xlink:title="Social_auth" target="_parent">
<polygon fill="none" stroke="black" points="593.113,-2394 504.887,-2394 504.887,-2358 593.113,-2358 593.113,-2394"/>
<text text-anchor="middle" x="549" y="-2371.6" font-family="Courier,monospace" font-size="11.00">Social_auth</text>
</a>
</g>
<!-- \\Social_igniter -->
<g id="node4" class="node"><title>\\Social_igniter</title>
<a xlink:href="libraries.Social_igniter.html" xlink:title="Social_igniter" target="_parent">
<polygon fill="none" stroke="black" points="603.416,-2340 494.584,-2340 494.584,-2304 603.416,-2304 603.416,-2340"/>
<text text-anchor="middle" x="549" y="-2317.6" font-family="Courier,monospace" font-size="11.00">Social_igniter</text>
</a>
</g>
<!-- \\Webfinger -->
<g id="node5" class="node"><title>\\Webfinger</title>
<a xlink:href="libraries.Webfinger.html" xlink:title="Webfinger" target="_parent">
<polygon fill="none" stroke="black" points="586.911,-2286 511.089,-2286 511.089,-2250 586.911,-2250 586.911,-2286"/>
<text text-anchor="middle" x="549" y="-2263.6" font-family="Courier,monospace" font-size="11.00">Webfinger</text>
</a>
</g>
<!-- \\Unzip -->
<g id="node6" class="node"><title>\\Unzip</title>
<a xlink:href="libraries.Unzip.html" xlink:title="Unzip" target="_parent">
<polygon fill="none" stroke="black" points="576,-2232 522,-2232 522,-2196 576,-2196 576,-2232"/>
<text text-anchor="middle" x="549" y="-2209.6" font-family="Courier,monospace" font-size="11.00">Unzip</text>
</a>
</g>
<!-- \\MY_Form_validation -->
<g id="node7" class="node"><title>\\MY_Form_validation</title>
<a xlink:href="libraries.MY_Form_validation.html" xlink:title="MY_Form_validation" target="_parent">
<polygon fill="none" stroke="black" points="616.319,-1854 481.681,-1854 481.681,-1818 616.319,-1818 616.319,-1854"/>
<text text-anchor="middle" x="549" y="-1831.6" font-family="Courier,monospace" font-size="11.00">MY_Form_validation</text>
</a>
</g>
<!-- \\CI_Form_validation -->
<g id="node45" class="node"><title>\\CI_Form_validation</title>
<ellipse fill="none" stroke="black" cx="313" cy="-326" rx="92.6566" ry="18"/>
<text text-anchor="middle" x="313" y="-320.4" font-family="Times,serif" font-size="14.00" fill="gray">\CI_Form_validation</text>
</g>
<!-- \\MY_Form_validation&#45;&gt;\\CI_Form_validation -->
<g id="edge5" class="edge"><title>\\MY_Form_validation&#45;&gt;\\CI_Form_validation</title>
<path fill="none" stroke="black" d="M486.617,-1817.92C483.367,-1815.33 480.442,-1812.38 478,-1809 382.778,-1677.28 509.789,-473.075 406,-348 404.034,-345.63 401.862,-343.49 399.525,-341.558"/>
<polygon fill="none" stroke="black" points="401.241,-338.492 391.004,-335.76 397.303,-344.279 401.241,-338.492"/>
</g>
<!-- \\MY_Cart -->
<g id="node8" class="node"><title>\\MY_Cart</title>
<a xlink:href="libraries.MY_Cart.html" xlink:title="MY_Cart" target="_parent">
<polygon fill="none" stroke="black" points="580.208,-1800 517.792,-1800 517.792,-1764 580.208,-1764 580.208,-1800"/>
<text text-anchor="middle" x="549" y="-1777.6" font-family="Courier,monospace" font-size="11.00">MY_Cart</text>
</a>
</g>
<!-- \\CI_Cart -->
<g id="node47" class="node"><title>\\CI_Cart</title>
<ellipse fill="none" stroke="black" cx="313" cy="-272" rx="44.6628" ry="18"/>
<text text-anchor="middle" x="313" y="-266.4" font-family="Times,serif" font-size="14.00" fill="gray">\CI_Cart</text>
</g>
<!-- \\MY_Cart&#45;&gt;\\CI_Cart -->
<g id="edge7" class="edge"><title>\\MY_Cart&#45;&gt;\\CI_Cart</title>
<path fill="none" stroke="black" d="M517.836,-1778.05C503.378,-1774.5 487.235,-1767.77 478,-1755 288.185,-1492.48 606.501,-553.448 406,-299 396.625,-287.102 382.29,-280.251 367.706,-276.363"/>
<polygon fill="none" stroke="black" points="368.149,-272.876 357.627,-274.118 366.627,-279.708 368.149,-272.876"/>
</g>
<!-- \\MY_Calendar -->
<g id="node9" class="node"><title>\\MY_Calendar</title>
<a xlink:href="libraries.MY_Calendar.html" xlink:title="MY_Calendar" target="_parent">
<polygon fill="none" stroke="black" points="593.113,-1746 504.887,-1746 504.887,-1710 593.113,-1710 593.113,-1746"/>
<text text-anchor="middle" x="549" y="-1723.6" font-family="Courier,monospace" font-size="11.00">MY_Calendar</text>
</a>
</g>
<!-- \\CI_Calendar -->
<g id="node49" class="node"><title>\\CI_Calendar</title>
<ellipse fill="none" stroke="black" cx="313" cy="-218" rx="63.121" ry="18"/>
<text text-anchor="middle" x="313" y="-212.4" font-family="Times,serif" font-size="14.00" fill="gray">\CI_Calendar</text>
</g>
<!-- \\MY_Calendar&#45;&gt;\\CI_Calendar -->
<g id="edge9" class="edge"><title>\\MY_Calendar&#45;&gt;\\CI_Calendar</title>
<path fill="none" stroke="black" d="M504.71,-1719.96C494.384,-1715.96 484.487,-1709.97 478,-1701 288.185,-1438.48 606.501,-499.448 406,-245 399.818,-237.155 391.481,-231.505 382.337,-227.451"/>
<polygon fill="none" stroke="black" points="383.567,-224.174 372.975,-223.906 381.088,-230.72 383.567,-224.174"/>
</g>
<!-- \\Installer -->
<g id="node10" class="node"><title>\\Installer</title>
<a xlink:href="libraries.Installer.html" xlink:title="Installer" target="_parent">
<polygon fill="none" stroke="black" points="586.911,-2016 511.089,-2016 511.089,-1980 586.911,-1980 586.911,-2016"/>
<text text-anchor="middle" x="549" y="-1993.6" font-family="Courier,monospace" font-size="11.00">Installer</text>
</a>
</g>
<!-- \\Dashboard_Controller -->
<g id="node11" class="node"><title>\\Dashboard_Controller</title>
<a xlink:href="libraries.Dashboard_Controller.html" xlink:title="Dashboard_Controller" target="_parent">
<polygon fill="none" stroke="black" points="387.021,-1800 238.979,-1800 238.979,-1764 387.021,-1764 387.021,-1800"/>
<text text-anchor="middle" x="313" y="-1777.6" font-family="Courier,monospace" font-size="11.00">Dashboard_Controller</text>
</a>
</g>
<!-- \\Dashboard_Controller&#45;&gt;\\MY_Controller -->
<g id="edge11" class="edge"><title>\\Dashboard_Controller&#45;&gt;\\MY_Controller</title>
<path fill="none" stroke="black" d="M238.958,-1782C213.504,-1782 184.75,-1782 158.511,-1782"/>
<polygon fill="none" stroke="black" points="158.208,-1778.5 148.208,-1782 158.208,-1785.5 158.208,-1778.5"/>
</g>
<!-- \\Bitly -->
<g id="node12" class="node"><title>\\Bitly</title>
<a xlink:href="libraries.Bitly.html" xlink:title="Bitly" target="_parent">
<polygon fill="none" stroke="black" points="576,-1962 522,-1962 522,-1926 576,-1926 576,-1962"/>
<text text-anchor="middle" x="549" y="-1939.6" font-family="Courier,monospace" font-size="11.00">Bitly</text>
</a>
</g>
<!-- \\App_tools -->
<g id="node13" class="node"><title>\\App_tools</title>
<a xlink:href="libraries.App_tools.html" xlink:title="App_tools" target="_parent">
<polygon fill="none" stroke="black" points="586.911,-1908 511.089,-1908 511.089,-1872 586.911,-1872 586.911,-1908"/>
<text text-anchor="middle" x="549" y="-1885.6" font-family="Courier,monospace" font-size="11.00">App_tools</text>
</a>
</g>
<!-- \\Activity_model -->
<g id="node14" class="node"><title>\\Activity_model</title>
<a xlink:href="models.activity_model.html" xlink:title="Activity_model" target="_parent">
<polygon fill="none" stroke="black" points="603.416,-1206 494.584,-1206 494.584,-1170 603.416,-1170 603.416,-1206"/>
<text text-anchor="middle" x="549" y="-1183.6" font-family="Courier,monospace" font-size="11.00">Activity_model</text>
</a>
</g>
<!-- \\CI_Model -->
<g id="node52" class="node"><title>\\CI_Model</title>
<ellipse fill="none" stroke="black" cx="313" cy="-164" rx="53.3355" ry="18"/>
<text text-anchor="middle" x="313" y="-158.4" font-family="Times,serif" font-size="14.00" fill="gray">\CI_Model</text>
</g>
<!-- \\Activity_model&#45;&gt;\\CI_Model -->
<g id="edge13" class="edge"><title>\\Activity_model&#45;&gt;\\CI_Model</title>
<path fill="none" stroke="black" d="M494.542,-1175.04C488.141,-1171.44 482.347,-1166.86 478,-1161 349.198,-987.419 541.864,-359.11 406,-191 398.234,-181.391 387.239,-175.085 375.539,-170.973"/>
<polygon fill="none" stroke="black" points="376.184,-167.513 365.601,-168.011 374.184,-174.222 376.184,-167.513"/>
</g>
<!-- \\Auth_model -->
<g id="node15" class="node"><title>\\Auth_model</title>
<a xlink:href="models.auth_model.html" xlink:title="Auth_model" target="_parent">
<polygon fill="none" stroke="black" points="590.011,-1152 507.989,-1152 507.989,-1116 590.011,-1116 590.011,-1152"/>
<text text-anchor="middle" x="549" y="-1129.6" font-family="Courier,monospace" font-size="11.00">Auth_model</text>
</a>
</g>
<!-- \\Auth_model&#45;&gt;\\CI_Model -->
<g id="edge15" class="edge"><title>\\Auth_model&#45;&gt;\\CI_Model</title>
<path fill="none" stroke="black" d="M507.807,-1126.91C496.457,-1122.93 485.24,-1116.71 478,-1107 355.972,-943.293 534.689,-349.525 406,-191 398.214,-181.408 387.209,-175.109 375.507,-170.999"/>
<polygon fill="none" stroke="black" points="376.152,-167.539 365.569,-168.037 374.153,-174.247 376.152,-167.539"/>
</g>
<!-- \\Categories_model -->
<g id="node16" class="node"><title>\\Categories_model</title>
<a xlink:href="models.categories_model.html" xlink:title="Categories_model" target="_parent">
<polygon fill="none" stroke="black" points="609.618,-1098 488.382,-1098 488.382,-1062 609.618,-1062 609.618,-1098"/>
<text text-anchor="middle" x="549" y="-1075.6" font-family="Courier,monospace" font-size="11.00">Categories_model</text>
</a>
</g>
<!-- \\Categories_model&#45;&gt;\\CI_Model -->
<g id="edge17" class="edge"><title>\\Categories_model&#45;&gt;\\CI_Model</title>
<path fill="none" stroke="black" d="M488.308,-1063C484.406,-1060.16 480.89,-1056.86 478,-1053 362.744,-899.164 527.515,-339.942 406,-191 398.19,-181.427 387.176,-175.136 375.472,-171.028"/>
<polygon fill="none" stroke="black" points="376.116,-167.568 365.533,-168.066 374.117,-174.276 376.116,-167.568"/>
</g>
<!-- \\Connections_model -->
<g id="node17" class="node"><title>\\Connections_model</title>
<a xlink:href="models.connections_model.html" xlink:title="Connections_model" target="_parent">
<polygon fill="none" stroke="black" points="613.218,-1584 484.782,-1584 484.782,-1548 613.218,-1548 613.218,-1584"/>
<text text-anchor="middle" x="549" y="-1561.6" font-family="Courier,monospace" font-size="11.00">Connections_model</text>
</a>
</g>
<!-- \\Connections_model&#45;&gt;\\CI_Model -->
<g id="edge19" class="edge"><title>\\Connections_model&#45;&gt;\\CI_Model</title>
<path fill="none" stroke="black" d="M486.633,-1547.91C483.379,-1545.32 480.449,-1542.37 478,-1539 301.749,-1296.26 592.132,-426.254 406,-191 398.176,-181.112 386.927,-174.711 374.966,-170.6"/>
<polygon fill="none" stroke="black" points="375.851,-167.213 365.271,-167.771 373.89,-173.932 375.851,-167.213"/>
</g>
<!-- \\Content_model -->
<g id="node18" class="node"><title>\\Content_model</title>
<a xlink:href="models.content_model.html" xlink:title="Content_model" target="_parent">
<polygon fill="none" stroke="black" points="599.814,-1530 498.186,-1530 498.186,-1494 599.814,-1494 599.814,-1530"/>
<text text-anchor="middle" x="549" y="-1507.6" font-family="Courier,monospace" font-size="11.00">Content_model</text>
</a>
</g>
<!-- \\Content_model&#45;&gt;\\CI_Model -->
<g id="edge21" class="edge"><title>\\Content_model&#45;&gt;\\CI_Model</title>
<path fill="none" stroke="black" d="M497.919,-1500.95C490.162,-1497.11 483.059,-1491.95 478,-1485 308.53,-1252.14 584.948,-416.659 406,-191 398.165,-181.12 386.912,-174.723 374.949,-170.613"/>
<polygon fill="none" stroke="black" points="375.835,-167.226 365.255,-167.784 373.874,-173.945 375.835,-167.226"/>
</g>
<!-- \\Image_model -->
<g id="node19" class="node"><title>\\Image_model</title>
<a xlink:href="models.image_model.html" xlink:title="Image_model" target="_parent">
<polygon fill="none" stroke="black" points="593.113,-1476 504.887,-1476 504.887,-1440 593.113,-1440 593.113,-1476"/>
<text text-anchor="middle" x="549" y="-1453.6" font-family="Courier,monospace" font-size="11.00">Image_model</text>
</a>
</g>
<!-- \\Image_model&#45;&gt;\\CI_Model -->
<g id="edge23" class="edge"><title>\\Image_model&#45;&gt;\\CI_Model</title>
<path fill="none" stroke="black" d="M504.762,-1449.93C494.435,-1445.93 484.526,-1439.94 478,-1431 315.31,-1208.02 577.765,-407.064 406,-191 398.153,-181.13 386.895,-174.737 374.931,-170.627"/>
<polygon fill="none" stroke="black" points="375.817,-167.24 365.237,-167.798 373.856,-173.959 375.817,-167.24"/>
</g>
<!-- \\Relationships_model -->
<g id="node20" class="node"><title>\\Relationships_model</title>
<a xlink:href="models.relationships_model.html" xlink:title="Relationships_model" target="_parent">
<polygon fill="none" stroke="black" points="619.921,-1422 478.079,-1422 478.079,-1386 619.921,-1386 619.921,-1422"/>
<text text-anchor="middle" x="549" y="-1399.6" font-family="Courier,monospace" font-size="11.00">Relationships_model</text>
</a>
</g>
<!-- \\Relationships_model&#45;&gt;\\CI_Model -->
<g id="edge25" class="edge"><title>\\Relationships_model&#45;&gt;\\CI_Model</title>
<path fill="none" stroke="black" d="M486.661,-1385.89C483.401,-1383.31 480.461,-1380.36 478,-1377 322.09,-1163.9 570.582,-397.471 406,-191 398.14,-181.14 386.877,-174.751 374.912,-170.642"/>
<polygon fill="none" stroke="black" points="375.798,-167.255 365.218,-167.813 373.837,-173.975 375.798,-167.255"/>
</g>
<!-- \\Settings_model -->
<g id="node21" class="node"><title>\\Settings_model</title>
<a xlink:href="models.settings_model.html" xlink:title="Settings_model" target="_parent">
<polygon fill="none" stroke="black" points="603.416,-1368 494.584,-1368 494.584,-1332 603.416,-1332 603.416,-1368"/>
<text text-anchor="middle" x="549" y="-1345.6" font-family="Courier,monospace" font-size="11.00">Settings_model</text>
</a>
</g>
<!-- \\Settings_model&#45;&gt;\\CI_Model -->
<g id="edge27" class="edge"><title>\\Settings_model&#45;&gt;\\CI_Model</title>
<path fill="none" stroke="black" d="M494.485,-1337.08C488.093,-1333.48 482.316,-1328.88 478,-1323 328.869,-1119.79 563.401,-387.878 406,-191 398.126,-181.151 386.857,-174.767 374.891,-170.659"/>
<polygon fill="none" stroke="black" points="375.777,-167.272 365.197,-167.83 373.816,-173.992 375.777,-167.272"/>
</g>
<!-- \\Sites_model -->
<g id="node22" class="node"><title>\\Sites_model</title>
<a xlink:href="models.sites_model.html" xlink:title="Sites_model" target="_parent">
<polygon fill="none" stroke="black" points="593.113,-1314 504.887,-1314 504.887,-1278 593.113,-1278 593.113,-1314"/>
<text text-anchor="middle" x="549" y="-1291.6" font-family="Courier,monospace" font-size="11.00">Sites_model</text>
</a>
</g>
<!-- \\Sites_model&#45;&gt;\\CI_Model -->
<g id="edge29" class="edge"><title>\\Sites_model&#45;&gt;\\CI_Model</title>
<path fill="none" stroke="black" d="M504.814,-1287.89C494.487,-1283.89 484.565,-1277.92 478,-1269 335.647,-1075.67 556.221,-378.287 406,-191 398.27,-181.363 387.289,-175.044 375.593,-170.93"/>
<polygon fill="none" stroke="black" points="376.238,-167.47 365.655,-167.968 374.238,-174.178 376.238,-167.47"/>
</g>
<!-- \\Upload_model -->
<g id="node23" class="node"><title>\\Upload_model</title>
<a xlink:href="models.upload_model.html" xlink:title="Upload_model" target="_parent">
<polygon fill="none" stroke="black" points="596.713,-1260 501.287,-1260 501.287,-1224 596.713,-1224 596.713,-1260"/>
<text text-anchor="middle" x="549" y="-1237.6" font-family="Courier,monospace" font-size="11.00">Upload_model</text>
</a>
</g>
<!-- \\Upload_model&#45;&gt;\\CI_Model -->
<g id="edge31" class="edge"><title>\\Upload_model&#45;&gt;\\CI_Model</title>
<path fill="none" stroke="black" d="M501.211,-1232.38C492.218,-1228.43 483.806,-1222.86 478,-1215 342.423,-1031.54 549.042,-368.698 406,-191 398.253,-181.376 387.265,-175.063 375.567,-170.95"/>
<polygon fill="none" stroke="black" points="376.212,-167.49 365.629,-167.988 374.213,-174.199 376.212,-167.49"/>
</g>
<!-- \\Activity -->
<g id="node24" class="node"><title>\\Activity</title>
<a xlink:href="controllers.api.activity.html" xlink:title="Activity" target="_parent">
<polygon fill="none" stroke="black" points="583.309,-990 514.691,-990 514.691,-954 583.309,-954 583.309,-990"/>
<text text-anchor="middle" x="549" y="-967.6" font-family="Courier,monospace" font-size="11.00">Activity</text>
</a>
</g>
<!-- \\Oauth_Controller -->
<g id="node63" class="node"><title>\\Oauth_Controller</title>
<ellipse fill="none" stroke="black" cx="313" cy="-110" rx="81.6834" ry="18"/>
<text text-anchor="middle" x="313" y="-104.4" font-family="Times,serif" font-size="14.00" fill="gray">\Oauth_Controller</text>
</g>
<!-- \\Activity&#45;&gt;\\Oauth_Controller -->
<g id="edge33" class="edge"><title>\\Activity&#45;&gt;\\Oauth_Controller</title>
<path fill="none" stroke="black" d="M514.443,-966.94C501.017,-963.157 486.701,-956.547 478,-945 369.513,-801.032 520.344,-276.362 406,-137 401.843,-131.933 396.788,-127.786 391.21,-124.396"/>
<polygon fill="none" stroke="black" points="392.558,-121.152 382.067,-119.668 389.342,-127.37 392.558,-121.152"/>
</g>
<!-- \\Categories -->
<g id="node25" class="node"><title>\\Categories</title>
<a xlink:href="controllers.api.categories.html" xlink:title="Categories" target="_parent">
<polygon fill="none" stroke="black" points="590.011,-936 507.989,-936 507.989,-900 590.011,-900 590.011,-936"/>
<text text-anchor="middle" x="549" y="-913.6" font-family="Courier,monospace" font-size="11.00">Categories</text>
</a>
</g>
<!-- \\Categories&#45;&gt;\\Oauth_Controller -->
<g id="edge35" class="edge"><title>\\Categories&#45;&gt;\\Oauth_Controller</title>
<path fill="none" stroke="black" d="M507.906,-910.839C496.561,-906.854 485.321,-900.651 478,-891 376.279,-756.896 513.175,-266.786 406,-137 401.827,-131.946 396.761,-127.808 391.175,-124.424"/>
<polygon fill="none" stroke="black" points="392.516,-121.177 382.024,-119.703 389.307,-127.398 392.516,-121.177"/>
</g>
<!-- \\Connections -->
<g id="node26" class="node"><title>\\Connections</title>
<a xlink:href="controllers.connections.html" xlink:title="Connections" target="_parent">
<polygon fill="none" stroke="black" points="593.113,-666 504.887,-666 504.887,-630 593.113,-630 593.113,-666"/>
<text text-anchor="middle" x="549" y="-643.6" font-family="Courier,monospace" font-size="11.00">Connections</text>
</a>
</g>
<!-- \\Connections&#45;&gt;\\MY_Controller -->
<g id="edge59" class="edge"><title>\\Connections&#45;&gt;\\MY_Controller</title>
<path fill="none" stroke="black" d="M504.84,-639.447C494.642,-635.451 484.776,-629.591 478,-621 318.181,-418.381 568.725,-22.6244 314,-64"/>
</g>
<!-- \\Connections&#45;&gt;\\Oauth_Controller -->
<g id="edge37" class="edge"><title>\\Connections&#45;&gt;\\Oauth_Controller</title>
<path fill="none" stroke="black" d="M504.561,-639.236C494.491,-635.244 484.757,-629.439 478,-621 342.069,-451.237 548.83,-301.002 406,-137 401.695,-132.057 396.539,-127.996 390.893,-124.663"/>
<polygon fill="none" stroke="black" points="392.176,-121.39 381.673,-120.001 389.018,-127.637 392.176,-121.39"/>
</g>
<!-- \\Content -->
<g id="node27" class="node"><title>\\Content</title>
<a xlink:href="controllers.api.content.html" xlink:title="Content" target="_parent">
<polygon fill="none" stroke="black" points="580.208,-882 517.792,-882 517.792,-846 580.208,-846 580.208,-882"/>
<text text-anchor="middle" x="549" y="-859.6" font-family="Courier,monospace" font-size="11.00">Content</text>
</a>
</g>
<!-- \\Content&#45;&gt;\\Oauth_Controller -->
<g id="edge39" class="edge"><title>\\Content&#45;&gt;\\Oauth_Controller</title>
<path fill="none" stroke="black" d="M517.759,-859.751C503.466,-856.128 487.491,-849.419 478,-837 288.084,-588.512 606.021,-377.428 406,-137 401.808,-131.961 396.729,-127.834 391.136,-124.457"/>
<polygon fill="none" stroke="black" points="392.468,-121.206 381.975,-119.744 389.266,-127.431 392.468,-121.206"/>
</g>
<!-- \\Content_meta -->
<g id="node28" class="node"><title>\\Content_meta</title>
<a xlink:href="controllers.api.content_meta.html" xlink:title="Content_meta" target="_parent">
<polygon fill="none" stroke="black" points="596.713,-828 501.287,-828 501.287,-792 596.713,-792 596.713,-828"/>
<text text-anchor="middle" x="549" y="-805.6" font-family="Courier,monospace" font-size="11.00">Content_meta</text>
</a>
</g>
<!-- \\Content_meta&#45;&gt;\\Oauth_Controller -->
<g id="edge41" class="edge"><title>\\Content_meta&#45;&gt;\\Oauth_Controller</title>
<path fill="none" stroke="black" d="M501.09,-800.038C492.218,-796.11 483.886,-790.633 478,-783 301.601,-554.22 591.702,-358.296 406,-137 401.787,-131.979 396.693,-127.864 391.09,-124.495"/>
<polygon fill="none" stroke="black" points="392.413,-121.24 381.918,-119.792 389.219,-127.469 392.413,-121.24"/>
</g>
<!-- \\Index -->
<g id="node29" class="node"><title>\\Index</title>
<a xlink:href="controllers.api.index.html" xlink:title="Index" target="_parent">
<polygon fill="none" stroke="black" points="576,-504 522,-504 522,-468 576,-468 576,-504"/>
<text text-anchor="middle" x="549" y="-481.6" font-family="Courier,monospace" font-size="11.00">Index</text>
</a>
</g>
<!-- \\Index&#45;&gt;\\MY_Controller -->
<g id="edge43" class="edge"><title>\\Index&#45;&gt;\\MY_Controller</title>
<path fill="none" stroke="black" d="M521.71,-482.261C506.737,-478.755 488.856,-471.995 478,-459 368.918,-328.419 525.439,-204.179 406,-83 376.691,-53.2644 355.212,-57.3059 314,-64"/>
</g>
<!-- \\Install -->
<g id="node30" class="node"><title>\\Install</title>
<a xlink:href="controllers.api.install.html" xlink:title="Install" target="_parent">
<polygon fill="none" stroke="black" points="580.208,-774 517.792,-774 517.792,-738 580.208,-738 580.208,-774"/>
<text text-anchor="middle" x="549" y="-751.6" font-family="Courier,monospace" font-size="11.00">Install</text>
</a>
</g>
<!-- \\Install&#45;&gt;\\Oauth_Controller -->
<g id="edge45" class="edge"><title>\\Install&#45;&gt;\\Oauth_Controller</title>
<path fill="none" stroke="black" d="M517.856,-751.676C503.587,-748.034 487.606,-741.33 478,-729 315.107,-519.913 577.394,-339.177 406,-137 401.762,-132 396.651,-127.9 391.036,-124.541"/>
<polygon fill="none" stroke="black" points="392.348,-121.281 381.85,-119.849 389.164,-127.515 392.348,-121.281"/>
</g>
<!-- \\Relationships -->
<g id="node31" class="node"><title>\\Relationships</title>
<a xlink:href="controllers.api.relationships.html" xlink:title="Relationships" target="_parent">
<polygon fill="none" stroke="black" points="599.814,-720 498.186,-720 498.186,-684 599.814,-684 599.814,-720"/>
<text text-anchor="middle" x="549" y="-697.6" font-family="Courier,monospace" font-size="11.00">Relationships</text>
</a>
</g>
<!-- \\Relationships&#45;&gt;\\Oauth_Controller -->
<g id="edge47" class="edge"><title>\\Relationships&#45;&gt;\\Oauth_Controller</title>
<path fill="none" stroke="black" d="M498.003,-690.439C490.337,-686.66 483.243,-681.648 478,-675 328.598,-485.587 563.101,-320.077 406,-137 401.732,-132.026 396.6,-127.943 390.971,-124.595"/>
<polygon fill="none" stroke="black" points="392.27,-121.33 381.77,-119.917 389.098,-127.569 392.27,-121.33"/>
</g>
<!-- \\Sandbox -->
<g id="node32" class="node"><title>\\Sandbox</title>
<a xlink:href="controllers.api.sandbox.html" xlink:title="Sandbox" target="_parent">
<polygon fill="none" stroke="black" points="580.208,-450 517.792,-450 517.792,-414 580.208,-414 580.208,-450"/>
<text text-anchor="middle" x="549" y="-427.6" font-family="Courier,monospace" font-size="11.00">Sandbox</text>
</a>
</g>
<!-- \\Sandbox&#45;&gt;\\MY_Controller -->
<g id="edge49" class="edge"><title>\\Sandbox&#45;&gt;\\MY_Controller</title>
<path fill="none" stroke="black" d="M312,-64C270.788,-70.6941 247.723,-51.7804 220,-83 104.255,-213.346 78.7506,-1542.06 75.4127,-1753.66"/>
<polygon fill="none" stroke="black" points="71.909,-1753.88 75.2544,-1763.94 78.9082,-1753.99 71.909,-1753.88"/>
<path fill="none" stroke="black" d="M517.654,-427.071C503.691,-423.289 488.034,-416.643 478,-405 382.265,-293.917 510.537,-185.844 406,-83 376.237,-53.719 355.212,-57.3059 314,-64"/>
</g>
<!-- \\Settings -->
<g id="node33" class="node"><title>\\Settings</title>
<a xlink:href="controllers.settings.html" xlink:title="Settings" target="_parent">
<polygon fill="none" stroke="black" points="583.309,-1692 514.691,-1692 514.691,-1656 583.309,-1656 583.309,-1692"/>
<text text-anchor="middle" x="549" y="-1669.6" font-family="Courier,monospace" font-size="11.00">Settings</text>
</a>
</g>
<!-- \\Settings&#45;&gt;\\Dashboard_Controller -->
<g id="edge67" class="edge"><title>\\Settings&#45;&gt;\\Dashboard_Controller</title>
<path fill="none" stroke="black" d="M514.593,-1684.43C502.663,-1688.78 489.369,-1694.38 478,-1701 442.248,-1721.82 443.06,-1741.61 406,-1760 403.058,-1761.46 400.014,-1762.83 396.902,-1764.1"/>
<polygon fill="none" stroke="black" points="395.524,-1760.88 387.396,-1767.68 397.988,-1767.43 395.524,-1760.88"/>
</g>
<!-- \\Settings&#45;&gt;\\Oauth_Controller -->
<g id="edge51" class="edge"><title>\\Settings&#45;&gt;\\Oauth_Controller</title>
<path fill="none" stroke="black" d="M514.576,-1669.21C501.003,-1665.48 486.538,-1658.83 478,-1647 281.402,-1374.6 613.686,-401.045 406,-137 402.015,-131.934 397.132,-127.783 391.712,-124.386"/>
<polygon fill="none" stroke="black" points="393.278,-121.255 382.806,-119.645 389.988,-127.434 393.278,-121.255"/>
</g>
<!-- \\Upload -->
<g id="node34" class="node"><title>\\Upload</title>
<a xlink:href="controllers.api.upload.html" xlink:title="Upload" target="_parent">
<polygon fill="none" stroke="black" points="576.608,-1044 521.392,-1044 521.392,-1008 576.608,-1008 576.608,-1044"/>
<text text-anchor="middle" x="549" y="-1021.6" font-family="Courier,monospace" font-size="11.00">Upload</text>
</a>
</g>
<!-- \\Upload&#45;&gt;\\Oauth_Controller -->
<g id="edge53" class="edge"><title>\\Upload&#45;&gt;\\Oauth_Controller</title>
<path fill="none" stroke="black" d="M521.199,-1022.66C506.046,-1019.3 488.153,-1012.55 478,-999 362.744,-845.164 527.515,-285.942 406,-137 401.926,-132.006 396.979,-127.905 391.518,-124.541"/>
<polygon fill="none" stroke="black" points="393.044,-121.389 382.563,-119.84 389.79,-127.587 393.044,-121.389"/>
</g>
<!-- \\Users -->
<g id="node35" class="node"><title>\\Users</title>
<a xlink:href="controllers.users.html" xlink:title="Users" target="_parent">
<polygon fill="none" stroke="black" points="576,-1638 522,-1638 522,-1602 576,-1602 576,-1638"/>
<text text-anchor="middle" x="549" y="-1615.6" font-family="Courier,monospace" font-size="11.00">Users</text>
</a>
</g>
<!-- \\Users&#45;&gt;\\Dashboard_Controller -->
<g id="edge73" class="edge"><title>\\Users&#45;&gt;\\Dashboard_Controller</title>
<path fill="none" stroke="black" d="M521.668,-1625.87C507.585,-1630.01 490.601,-1636.69 478,-1647 431.914,-1684.71 454.498,-1725.44 406,-1760 402.945,-1762.18 399.702,-1764.14 396.33,-1765.91"/>
<polygon fill="none" stroke="black" points="394.746,-1762.79 387.141,-1770.16 397.686,-1769.14 394.746,-1762.79"/>
</g>
<!-- \\Users&#45;&gt;\\Oauth_Controller -->
<g id="edge55" class="edge"><title>\\Users&#45;&gt;\\Oauth_Controller</title>
<path fill="none" stroke="black" d="M521.731,-1616.94C506.37,-1613.68 488.074,-1606.93 478,-1593 288.185,-1330.48 606.501,-391.448 406,-137 402.011,-131.938 397.124,-127.789 391.702,-124.394"/>
<polygon fill="none" stroke="black" points="393.266,-121.261 382.794,-119.655 389.979,-127.441 393.266,-121.261"/>
</g>
<!-- \\Apps -->
<g id="node36" class="node"><title>\\Apps</title>
<a xlink:href="controllers.apps.html" xlink:title="Apps" target="_parent">
<polygon fill="none" stroke="black" points="576,-2124 522,-2124 522,-2088 576,-2088 576,-2124"/>
<text text-anchor="middle" x="549" y="-2101.6" font-family="Courier,monospace" font-size="11.00">Apps</text>
</a>
</g>
<!-- \\Apps&#45;&gt;\\Dashboard_Controller -->
<g id="edge57" class="edge"><title>\\Apps&#45;&gt;\\Dashboard_Controller</title>
<path fill="none" stroke="black" d="M521.749,-2100.53C507.52,-2096.5 490.369,-2089.79 478,-2079 390.478,-2002.67 340.492,-1867.75 322.138,-1809.76"/>
<polygon fill="none" stroke="black" points="325.472,-1808.69 319.172,-1800.17 318.785,-1810.76 325.472,-1808.69"/>
</g>
<!-- \\Dialogs -->
<g id="node37" class="node"><title>\\Dialogs</title>
<a xlink:href="controllers.dialogs.html" xlink:title="Dialogs" target="_parent">
<polygon fill="none" stroke="black" points="580.208,-612 517.792,-612 517.792,-576 580.208,-576 580.208,-612"/>
<text text-anchor="middle" x="549" y="-589.6" font-family="Courier,monospace" font-size="11.00">Dialogs</text>
</a>
</g>
<!-- \\Dialogs&#45;&gt;\\MY_Controller -->
<g id="edge61" class="edge"><title>\\Dialogs&#45;&gt;\\MY_Controller</title>
<path fill="none" stroke="black" d="M517.639,-589.474C503.495,-585.784 487.688,-579.1 478,-567 342.069,-397.237 555.416,-241.024 406,-83 377.315,-52.6624 355.212,-57.3059 314,-64"/>
</g>
<!-- \\Feed -->
<g id="node38" class="node"><title>\\Feed</title>
<a xlink:href="controllers.feed.html" xlink:title="Feed" target="_parent">
<polygon fill="none" stroke="black" points="576,-558 522,-558 522,-522 576,-522 576,-558"/>
<text text-anchor="middle" x="549" y="-535.6" font-family="Courier,monospace" font-size="11.00">Feed</text>
</a>
</g>
<!-- \\Feed&#45;&gt;\\MY_Controller -->
<g id="edge63" class="edge"><title>\\Feed&#45;&gt;\\MY_Controller</title>
<path fill="none" stroke="black" d="M521.945,-536.432C506.863,-532.982 488.786,-526.222 478,-513 355.513,-362.852 540.406,-222.579 406,-83 377.04,-52.925 355.212,-57.3059 314,-64"/>
</g>
<!-- \\Home -->
<g id="node39" class="node"><title>\\Home</title>
<a xlink:href="controllers.home.html" xlink:title="Home" target="_parent">
<polygon fill="none" stroke="black" points="576,-2070 522,-2070 522,-2034 576,-2034 576,-2070"/>
<text text-anchor="middle" x="549" y="-2047.6" font-family="Courier,monospace" font-size="11.00">Home</text>
</a>
</g>
<!-- \\Home&#45;&gt;\\Dashboard_Controller -->
<g id="edge65" class="edge"><title>\\Home&#45;&gt;\\Dashboard_Controller</title>
<path fill="none" stroke="black" d="M521.774,-2045.99C507.723,-2041.82 490.735,-2035.14 478,-2025 402.049,-1964.5 348.219,-1859.22 325.72,-1809.5"/>
<polygon fill="none" stroke="black" points="328.903,-1808.04 321.641,-1800.33 322.507,-1810.89 328.903,-1808.04"/>
</g>
<!-- \\Setup -->
<g id="node40" class="node"><title>\\Setup</title>
<a xlink:href="controllers.setup.html" xlink:title="Setup" target="_parent">
<polygon fill="none" stroke="black" points="576,-396 522,-396 522,-360 576,-360 576,-396"/>
<text text-anchor="middle" x="549" y="-373.6" font-family="Courier,monospace" font-size="11.00">Setup</text>
</a>
</g>
<!-- \\MX_Controller -->
<g id="node82" class="node"><title>\\MX_Controller</title>
<ellipse fill="none" stroke="black" cx="313" cy="-18" rx="73.6044" ry="18"/>
<text text-anchor="middle" x="313" y="-12.4" font-family="Times,serif" font-size="14.00" fill="gray">\MX_Controller</text>
</g>
<!-- \\Setup&#45;&gt;\\MX_Controller -->
<g id="edge69" class="edge"><title>\\Setup&#45;&gt;\\MX_Controller</title>
<path fill="none" stroke="black" d="M545.337,-359.809C536.355,-304.93 502.162,-139.312 406,-50 398.565,-43.095 389.562,-37.6689 380.134,-33.4078"/>
<polygon fill="none" stroke="black" points="381.188,-30.0578 370.606,-29.5234 378.545,-36.5397 381.188,-30.0578"/>
</g>
<!-- \\Site -->
<g id="node41" class="node"><title>\\Site</title>
<a xlink:href="controllers.site.html" xlink:title="Site" target="_parent">
<polygon fill="none" stroke="black" points="576,-2178 522,-2178 522,-2142 576,-2142 576,-2178"/>
<text text-anchor="middle" x="549" y="-2155.6" font-family="Courier,monospace" font-size="11.00">Site</text>
</a>
</g>
<!-- \\Site&#45;&gt;\\Site_Controller -->
<g id="edge71" class="edge"><title>\\Site&#45;&gt;\\Site_Controller</title>
<path fill="none" stroke="black" d="M521.842,-2150.55C508.589,-2145.6 492.314,-2139.28 478,-2133 436.579,-2114.83 390.479,-2091.8 357.731,-2074.95"/>
<polygon fill="none" stroke="black" points="358.932,-2071.63 348.441,-2070.15 355.719,-2077.85 358.932,-2071.63"/>
</g>
</g>
</svg>
