<?xml version="1.0" encoding="UTF-8" standalone="no"?>
<!DOCTYPE svg PUBLIC "-//W3C//DTD SVG 1.1//EN"
 "http://www.w3.org/Graphics/SVG/1.1/DTD/svg11.dtd">
<!-- Generated by graphviz version 2.28.0 (20110509.1545)
 -->
<!-- Title: G Pages: 1 -->
<svg width="430pt" height="1231pt"
 viewBox="0.00 0.00 430.00 1231.00" xmlns="http://www.w3.org/2000/svg" xmlns:xlink="http://www.w3.org/1999/xlink">
<g id="graph1" class="graph" transform="scale(1 1) rotate(0) translate(4 1227)">
<title>G</title>
<polygon fill="white" stroke="white" points="-4,5 -4,-1227 427,-1227 427,5 -4,5"/>
<g id="graph2" class="cluster"><title>cluster_global</title>
<polyline fill="none" stroke="gray" points="262,-8 402,-8 "/>
<path fill="none" stroke="gray" d="M402,-8C408,-8 414,-14 414,-20"/>
<polyline fill="none" stroke="gray" points="414,-20 414,-1203 "/>
<path fill="none" stroke="gray" d="M414,-1203C414,-1209 408,-1215 402,-1215"/>
<polyline fill="none" stroke="gray" points="402,-1215 262,-1215 "/>
<path fill="none" stroke="gray" d="M262,-1215C256,-1215 250,-1209 250,-1203"/>
<polyline fill="none" stroke="gray" points="250,-1203 250,-20 "/>
<path fill="none" stroke="gray" d="M250,-20C250,-14 256,-8 262,-8"/>
<text text-anchor="middle" x="332" y="-1200" font-family="Times,serif" font-size="11.00" fill="gray">global</text>
</g>
<!-- \\Site_Controller -->
<g id="node2" class="node"><title>\\Site_Controller</title>
<a xlink:href="libraries.Site_Controller.html" xlink:title="Site_Controller" target="_parent">
<polygon fill="none" stroke="black" points="389.516,-1186 274.484,-1186 274.484,-1150 389.516,-1150 389.516,-1186"/>
<text text-anchor="middle" x="332" y="-1163.6" font-family="Courier,monospace" font-size="11.00">Site_Controller</text>
</a>
</g>
<!-- \\MY_Controller -->
<g id="node25" class="node"><title>\\MY_Controller</title>
<ellipse fill="none" stroke="black" cx="93" cy="-1033" rx="73.6044" ry="18"/>
<text text-anchor="middle" x="93" y="-1027.4" font-family="Times,serif" font-size="14.00" fill="gray">\MY_Controller</text>
</g>
<!-- \\Site_Controller&#45;&gt;\\MY_Controller -->
<g id="edge3" class="edge"><title>\\Site_Controller&#45;&gt;\\MY_Controller</title>
<path fill="none" stroke="black" d="M274.39,-1151.43C266.053,-1148.33 257.69,-1144.84 250,-1141 202.602,-1117.3 153.169,-1080.74 122.978,-1056.84"/>
<polygon fill="none" stroke="black" points="124.987,-1053.96 114.99,-1050.45 120.616,-1059.43 124.987,-1053.96"/>
</g>
<!-- \\Social_auth -->
<g id="node3" class="node"><title>\\Social_auth</title>
<a xlink:href="libraries.Social_auth.html" xlink:title="Social_auth" target="_parent">
<polygon fill="none" stroke="black" points="376.113,-1132 287.887,-1132 287.887,-1096 376.113,-1096 376.113,-1132"/>
<text text-anchor="middle" x="332" y="-1109.6" font-family="Courier,monospace" font-size="11.00">Social_auth</text>
</a>
</g>
<!-- \\Social_igniter -->
<g id="node4" class="node"><title>\\Social_igniter</title>
<a xlink:href="libraries.Social_igniter.html" xlink:title="Social_igniter" target="_parent">
<polygon fill="none" stroke="black" points="386.416,-1078 277.584,-1078 277.584,-1042 386.416,-1042 386.416,-1078"/>
<text text-anchor="middle" x="332" y="-1055.6" font-family="Courier,monospace" font-size="11.00">Social_igniter</text>
</a>
</g>
<!-- \\Webfinger -->
<g id="node5" class="node"><title>\\Webfinger</title>
<a xlink:href="libraries.Webfinger.html" xlink:title="Webfinger" target="_parent">
<polygon fill="none" stroke="black" points="369.911,-1024 294.089,-1024 294.089,-988 369.911,-988 369.911,-1024"/>
<text text-anchor="middle" x="332" y="-1001.6" font-family="Courier,monospace" font-size="11.00">Webfinger</text>
</a>
</g>
<!-- \\Unzip -->
<g id="node6" class="node"><title>\\Unzip</title>
<a xlink:href="libraries.Unzip.html" xlink:title="Unzip" target="_parent">
<polygon fill="none" stroke="black" points="359,-970 305,-970 305,-934 359,-934 359,-970"/>
<text text-anchor="middle" x="332" y="-947.6" font-family="Courier,monospace" font-size="11.00">Unzip</text>
</a>
</g>
<!-- \\MY_Form_validation -->
<g id="node7" class="node"><title>\\MY_Form_validation</title>
<a xlink:href="libraries.MY_Form_validation.html" xlink:title="MY_Form_validation" target="_parent">
<polygon fill="none" stroke="black" points="399.319,-862 264.681,-862 264.681,-826 399.319,-826 399.319,-862"/>
<text text-anchor="middle" x="332" y="-839.6" font-family="Courier,monospace" font-size="11.00">MY_Form_validation</text>
</a>
</g>
<!-- \\CI_Form_validation -->
<g id="node27" class="node"><title>\\CI_Form_validation</title>
<ellipse fill="none" stroke="black" cx="93" cy="-844" rx="92.6566" ry="18"/>
<text text-anchor="middle" x="93" y="-838.4" font-family="Times,serif" font-size="14.00" fill="gray">\CI_Form_validation</text>
</g>
<!-- \\MY_Form_validation&#45;&gt;\\CI_Form_validation -->
<g id="edge5" class="edge"><title>\\MY_Form_validation&#45;&gt;\\CI_Form_validation</title>
<path fill="none" stroke="black" d="M264.667,-844C243.434,-844 219.409,-844 196.231,-844"/>
<polygon fill="none" stroke="black" points="196.008,-840.5 186.008,-844 196.008,-847.5 196.008,-840.5"/>
</g>
<!-- \\MY_Cart -->
<g id="node8" class="node"><title>\\MY_Cart</title>
<a xlink:href="libraries.MY_Cart.html" xlink:title="MY_Cart" target="_parent">
<polygon fill="none" stroke="black" points="363.208,-808 300.792,-808 300.792,-772 363.208,-772 363.208,-808"/>
<text text-anchor="middle" x="332" y="-785.6" font-family="Courier,monospace" font-size="11.00">MY_Cart</text>
</a>
</g>
<!-- \\CI_Cart -->
<g id="node29" class="node"><title>\\CI_Cart</title>
<ellipse fill="none" stroke="black" cx="93" cy="-790" rx="44.6628" ry="18"/>
<text text-anchor="middle" x="93" y="-784.4" font-family="Times,serif" font-size="14.00" fill="gray">\CI_Cart</text>
</g>
<!-- \\MY_Cart&#45;&gt;\\CI_Cart -->
<g id="edge7" class="edge"><title>\\MY_Cart&#45;&gt;\\CI_Cart</title>
<path fill="none" stroke="black" d="M300.502,-790C262.065,-790 195.331,-790 148.143,-790"/>
<polygon fill="none" stroke="black" points="148.09,-786.5 138.09,-790 148.09,-793.5 148.09,-786.5"/>
</g>
<!-- \\MY_Calendar -->
<g id="node9" class="node"><title>\\MY_Calendar</title>
<a xlink:href="libraries.MY_Calendar.html" xlink:title="MY_Calendar" target="_parent">
<polygon fill="none" stroke="black" points="376.113,-700 287.887,-700 287.887,-664 376.113,-664 376.113,-700"/>
<text text-anchor="middle" x="332" y="-677.6" font-family="Courier,monospace" font-size="11.00">MY_Calendar</text>
</a>
</g>
<!-- \\CI_Calendar -->
<g id="node31" class="node"><title>\\CI_Calendar</title>
<ellipse fill="none" stroke="black" cx="93" cy="-682" rx="63.121" ry="18"/>
<text text-anchor="middle" x="93" y="-676.4" font-family="Times,serif" font-size="14.00" fill="gray">\CI_Calendar</text>
</g>
<!-- \\MY_Calendar&#45;&gt;\\CI_Calendar -->
<g id="edge9" class="edge"><title>\\MY_Calendar&#45;&gt;\\CI_Calendar</title>
<path fill="none" stroke="black" d="M287.806,-682C253.907,-682 205.97,-682 166.253,-682"/>
<polygon fill="none" stroke="black" points="166.083,-678.5 156.083,-682 166.083,-685.5 166.083,-678.5"/>
</g>
<!-- \\Installer -->
<g id="node10" class="node"><title>\\Installer</title>
<a xlink:href="libraries.Installer.html" xlink:title="Installer" target="_parent">
<polygon fill="none" stroke="black" points="369.911,-754 294.089,-754 294.089,-718 369.911,-718 369.911,-754"/>
<text text-anchor="middle" x="332" y="-731.6" font-family="Courier,monospace" font-size="11.00">Installer</text>
</a>
</g>
<!-- \\Dashboard_Controller -->
<g id="node11" class="node"><title>\\Dashboard_Controller</title>
<a xlink:href="libraries.Dashboard_Controller.html" xlink:title="Dashboard_Controller" target="_parent">
<polygon fill="none" stroke="black" points="406.021,-916 257.979,-916 257.979,-880 406.021,-880 406.021,-916"/>
<text text-anchor="middle" x="332" y="-893.6" font-family="Courier,monospace" font-size="11.00">Dashboard_Controller</text>
</a>
</g>
<!-- \\Dashboard_Controller&#45;&gt;\\MY_Controller -->
<g id="edge11" class="edge"><title>\\Dashboard_Controller&#45;&gt;\\MY_Controller</title>
<path fill="none" stroke="black" d="M270.509,-916.04C263.474,-918.758 256.497,-921.752 250,-925 202.602,-948.699 153.169,-985.263 122.978,-1009.16"/>
<polygon fill="none" stroke="black" points="120.616,-1006.57 114.99,-1015.55 124.987,-1012.04 120.616,-1006.57"/>
</g>
<!-- \\Bitly -->
<g id="node12" class="node"><title>\\Bitly</title>
<a xlink:href="libraries.Bitly.html" xlink:title="Bitly" target="_parent">
<polygon fill="none" stroke="black" points="359,-646 305,-646 305,-610 359,-610 359,-646"/>
<text text-anchor="middle" x="332" y="-623.6" font-family="Courier,monospace" font-size="11.00">Bitly</text>
</a>
</g>
<!-- \\App_tools -->
<g id="node13" class="node"><title>\\App_tools</title>
<a xlink:href="libraries.App_tools.html" xlink:title="App_tools" target="_parent">
<polygon fill="none" stroke="black" points="369.911,-592 294.089,-592 294.089,-556 369.911,-556 369.911,-592"/>
<text text-anchor="middle" x="332" y="-569.6" font-family="Courier,monospace" font-size="11.00">App_tools</text>
</a>
</g>
<!-- \\Activity_model -->
<g id="node14" class="node"><title>\\Activity_model</title>
<a xlink:href="models.activity_model.html" xlink:title="Activity_model" target="_parent">
<polygon fill="none" stroke="black" points="386.416,-430 277.584,-430 277.584,-394 386.416,-394 386.416,-430"/>
<text text-anchor="middle" x="332" y="-407.6" font-family="Courier,monospace" font-size="11.00">Activity_model</text>
</a>
</g>
<!-- \\CI_Model -->
<g id="node34" class="node"><title>\\CI_Model</title>
<ellipse fill="none" stroke="black" cx="93" cy="-277" rx="53.3355" ry="18"/>
<text text-anchor="middle" x="93" y="-271.4" font-family="Times,serif" font-size="14.00" fill="gray">\CI_Model</text>
</g>
<!-- \\Activity_model&#45;&gt;\\CI_Model -->
<g id="edge13" class="edge"><title>\\Activity_model&#45;&gt;\\CI_Model</title>
<path fill="none" stroke="black" d="M277.406,-396.534C268.081,-393.17 258.618,-389.309 250,-385 202.063,-361.032 152.046,-323.905 121.956,-300.027"/>
<polygon fill="none" stroke="black" points="124.008,-297.187 114.016,-293.666 119.632,-302.65 124.008,-297.187"/>
</g>
<!-- \\Auth_model -->
<g id="node15" class="node"><title>\\Auth_model</title>
<a xlink:href="models.auth_model.html" xlink:title="Auth_model" target="_parent">
<polygon fill="none" stroke="black" points="373.011,-376 290.989,-376 290.989,-340 373.011,-340 373.011,-376"/>
<text text-anchor="middle" x="332" y="-353.6" font-family="Courier,monospace" font-size="11.00">Auth_model</text>
</a>
</g>
<!-- \\Auth_model&#45;&gt;\\CI_Model -->
<g id="edge15" class="edge"><title>\\Auth_model&#45;&gt;\\CI_Model</title>
<path fill="none" stroke="black" d="M290.593,-344.632C277.619,-340.313 263.193,-335.482 250,-331 213.148,-318.48 171.494,-304.047 140.504,-293.254"/>
<polygon fill="none" stroke="black" points="141.432,-289.871 130.837,-289.885 139.128,-296.481 141.432,-289.871"/>
</g>
<!-- \\Categories_model -->
<g id="node16" class="node"><title>\\Categories_model</title>
<a xlink:href="models.categories_model.html" xlink:title="Categories_model" target="_parent">
<polygon fill="none" stroke="black" points="392.618,-322 271.382,-322 271.382,-286 392.618,-286 392.618,-322"/>
<text text-anchor="middle" x="332" y="-299.6" font-family="Courier,monospace" font-size="11.00">Categories_model</text>
</a>
</g>
<!-- \\Categories_model&#45;&gt;\\CI_Model -->
<g id="edge17" class="edge"><title>\\Categories_model&#45;&gt;\\CI_Model</title>
<path fill="none" stroke="black" d="M271.195,-297.187C235.375,-293.106 189.983,-287.935 154.109,-283.848"/>
<polygon fill="none" stroke="black" points="154.114,-280.326 143.782,-282.671 153.322,-287.281 154.114,-280.326"/>
</g>
<!-- \\Connections_model -->
<g id="node17" class="node"><title>\\Connections_model</title>
<a xlink:href="models.connections_model.html" xlink:title="Connections_model" target="_parent">
<polygon fill="none" stroke="black" points="396.218,-268 267.782,-268 267.782,-232 396.218,-232 396.218,-268"/>
<text text-anchor="middle" x="332" y="-245.6" font-family="Courier,monospace" font-size="11.00">Connections_model</text>
</a>
</g>
<!-- \\Connections_model&#45;&gt;\\CI_Model -->
<g id="edge19" class="edge"><title>\\Connections_model&#45;&gt;\\CI_Model</title>
<path fill="none" stroke="black" d="M267.8,-257.2C232.48,-261.224 188.711,-266.21 153.933,-270.172"/>
<polygon fill="none" stroke="black" points="153.453,-266.704 143.914,-271.314 154.246,-273.659 153.453,-266.704"/>
</g>
<!-- \\Content_model -->
<g id="node18" class="node"><title>\\Content_model</title>
<a xlink:href="models.content_model.html" xlink:title="Content_model" target="_parent">
<polygon fill="none" stroke="black" points="382.814,-214 281.186,-214 281.186,-178 382.814,-178 382.814,-214"/>
<text text-anchor="middle" x="332" y="-191.6" font-family="Courier,monospace" font-size="11.00">Content_model</text>
</a>
</g>
<!-- \\Content_model&#45;&gt;\\CI_Model -->
<g id="edge21" class="edge"><title>\\Content_model&#45;&gt;\\CI_Model</title>
<path fill="none" stroke="black" d="M280.848,-212.618C270.633,-216.03 259.965,-219.615 250,-223 213.148,-235.52 171.494,-249.953 140.504,-260.746"/>
<polygon fill="none" stroke="black" points="139.128,-257.519 130.837,-264.115 141.432,-264.129 139.128,-257.519"/>
</g>
<!-- \\Image_model -->
<g id="node19" class="node"><title>\\Image_model</title>
<a xlink:href="models.image_model.html" xlink:title="Image_model" target="_parent">
<polygon fill="none" stroke="black" points="376.113,-160 287.887,-160 287.887,-124 376.113,-124 376.113,-160"/>
<text text-anchor="middle" x="332" y="-137.6" font-family="Courier,monospace" font-size="11.00">Image_model</text>
</a>
</g>
<!-- \\Image_model&#45;&gt;\\CI_Model -->
<g id="edge23" class="edge"><title>\\Image_model&#45;&gt;\\CI_Model</title>
<path fill="none" stroke="black" d="M287.627,-153.947C275.185,-158.039 261.8,-163.1 250,-169 202.063,-192.968 152.046,-230.095 121.956,-253.973"/>
<polygon fill="none" stroke="black" points="119.632,-251.35 114.016,-260.334 124.008,-256.813 119.632,-251.35"/>
</g>
<!-- \\Relationships_model -->
<g id="node20" class="node"><title>\\Relationships_model</title>
<a xlink:href="models.relationships_model.html" xlink:title="Relationships_model" target="_parent">
<polygon fill="none" stroke="black" points="402.921,-106 261.079,-106 261.079,-70 402.921,-70 402.921,-106"/>
<text text-anchor="middle" x="332" y="-83.6" font-family="Courier,monospace" font-size="11.00">Relationships_model</text>
</a>
</g>
<!-- \\Relationships_model&#45;&gt;\\CI_Model -->
<g id="edge25" class="edge"><title>\\Relationships_model&#45;&gt;\\CI_Model</title>
<path fill="none" stroke="black" d="M266.862,-106.092C260.982,-108.718 255.265,-111.677 250,-115 191.405,-151.982 139.083,-215.539 112.494,-251.055"/>
<polygon fill="none" stroke="black" points="109.423,-249.323 106.301,-259.447 115.055,-253.48 109.423,-249.323"/>
</g>
<!-- \\Settings_model -->
<g id="node21" class="node"><title>\\Settings_model</title>
<a xlink:href="models.settings_model.html" xlink:title="Settings_model" target="_parent">
<polygon fill="none" stroke="black" points="386.416,-52 277.584,-52 277.584,-16 386.416,-16 386.416,-52"/>
<text text-anchor="middle" x="332" y="-29.6" font-family="Courier,monospace" font-size="11.00">Settings_model</text>
</a>
</g>
<!-- \\Settings_model&#45;&gt;\\CI_Model -->
<g id="edge27" class="edge"><title>\\Settings_model&#45;&gt;\\CI_Model</title>
<path fill="none" stroke="black" d="M277.676,-46.4805C267.927,-50.1927 258.243,-54.9451 250,-61 180.188,-112.28 129.038,-204.114 106.602,-249.734"/>
<polygon fill="none" stroke="black" points="103.327,-248.468 102.131,-258.996 109.631,-251.512 103.327,-248.468"/>
</g>
<!-- \\Sites_model -->
<g id="node22" class="node"><title>\\Sites_model</title>
<a xlink:href="models.sites_model.html" xlink:title="Sites_model" target="_parent">
<polygon fill="none" stroke="black" points="376.113,-538 287.887,-538 287.887,-502 376.113,-502 376.113,-538"/>
<text text-anchor="middle" x="332" y="-515.6" font-family="Courier,monospace" font-size="11.00">Sites_model</text>
</a>
</g>
<!-- \\Sites_model&#45;&gt;\\CI_Model -->
<g id="edge29" class="edge"><title>\\Sites_model&#45;&gt;\\CI_Model</title>
<path fill="none" stroke="black" d="M287.815,-511.027C274.838,-506.956 261.11,-501.161 250,-493 180.188,-441.72 129.038,-349.886 106.602,-304.266"/>
<polygon fill="none" stroke="black" points="109.631,-302.488 102.131,-295.004 103.327,-305.532 109.631,-302.488"/>
</g>
<!-- \\Upload_model -->
<g id="node23" class="node"><title>\\Upload_model</title>
<a xlink:href="models.upload_model.html" xlink:title="Upload_model" target="_parent">
<polygon fill="none" stroke="black" points="379.713,-484 284.287,-484 284.287,-448 379.713,-448 379.713,-484"/>
<text text-anchor="middle" x="332" y="-461.6" font-family="Courier,monospace" font-size="11.00">Upload_model</text>
</a>
</g>
<!-- \\Upload_model&#45;&gt;\\CI_Model -->
<g id="edge31" class="edge"><title>\\Upload_model&#45;&gt;\\CI_Model</title>
<path fill="none" stroke="black" d="M284.277,-454.671C272.577,-450.713 260.404,-445.567 250,-439 191.405,-402.018 139.083,-338.461 112.494,-302.945"/>
<polygon fill="none" stroke="black" points="115.055,-300.52 106.301,-294.553 109.423,-304.677 115.055,-300.52"/>
</g>
</g>
</svg>
